<?xml version="1.0" encoding="UTF-8"?>
<svg id="Layer_1" xmlns="http://www.w3.org/2000/svg" width="1920" height="1080" viewBox="0 0 1920 1080">
  <defs>
    <style>
      .cls-1 {
        fill: #ff57ee;
      }

      .cls-2 {
        fill: #00f1d1;
      }

      .cls-3 {
        fill: #2b2b2a;
      }

      .cls-4 {
        fill: none;
        stroke: #231f20;
        stroke-width: .18px;
      }

      .cls-5 {
        fill: #fff;
        font-family: VisueltPro-Light, 'Visuelt Pro';
        font-size: 32.3px;
        font-weight: 300;
      }

      .cls-6 {
        letter-spacing: -.02em;
      }

      .cls-7 {
        letter-spacing: 0em;
      }

      .cls-8 {
        letter-spacing: 0em;
      }

      .cls-9 {
        letter-spacing: -.01em;
      }

      .cls-10 {
        letter-spacing: 0em;
      }

      .cls-11 {
        letter-spacing: 0em;
      }

      .cls-12 {
        letter-spacing: 0em;
      }

      .cls-13 {
        letter-spacing: 0em;
      }

      .cls-14 {
        letter-spacing: 0em;
      }

      .cls-15 {
        fill: #f8f7ff;
      }

      .cls-16 {
        fill: #dadada;
      }

      .cls-17 {
        fill: #e6e738;
      }

      .cls-18 {
        fill: #007cba;
      }
    </style>
  </defs>
  <rect class="cls-16" x="114.94" y="95.01" width="252.15" height="254.68"/>
  <rect class="cls-16" x="114.94" y="604.38" width="252.15" height="254.68"/>
  <rect class="cls-3" x="391.74" y="604.38" width="252.15" height="254.68"/>
  <rect class="cls-2" x="668.54" y="95.01" width="252.15" height="254.68"/>
  <rect class="cls-2" x="668.54" y="604.38" width="252.15" height="254.68"/>
  <rect class="cls-1" x="1222.14" y="95.01" width="252.15" height="254.68"/>
  <rect class="cls-18" x="1498.94" y="95.01" width="252.15" height="254.68"/>
  <rect class="cls-4" x="1498.94" y="95.01" width="252.15" height="254.68"/>
  <rect class="cls-3" x="391.74" y="95.01" width="252.15" height="254.68"/>
  <rect class="cls-17" x="945.34" y="95.01" width="252.15" height="254.68"/>
  <rect class="cls-17" x="945.34" y="604.38" width="252.15" height="254.68"/>
  <rect class="cls-18" x="1222.14" y="604.38" width="252.15" height="254.68"/>
  <rect class="cls-15" x="1498.94" y="604.38" width="252.15" height="254.68"/>
  <rect class="cls-4" x="1498.94" y="604.38" width="252.15" height="254.68"/>
  <path class="cls-3" d="M241.01,795.11c35.01,0,63.39-28.38,63.39-63.39s-28.38-63.39-63.39-63.39-63.39,28.38-63.39,63.39,28.38,63.39,63.39,63.39"/>
  <path class="cls-17" d="M517.81,795.11c35.01,0,63.39-28.38,63.39-63.39s-28.38-63.39-63.39-63.39-63.39,28.38-63.39,63.39,28.38,63.39,63.39,63.39"/>
  <path class="cls-3" d="M794.61,795.11c35.01,0,63.39-28.38,63.39-63.39s-28.38-63.39-63.39-63.39-63.39,28.38-63.39,63.39,28.38,63.39,63.39,63.39"/>
  <path class="cls-15" d="M1071.41,795.11c35.01,0,63.39-28.38,63.39-63.39s-28.38-63.39-63.39-63.39-63.39,28.38-63.39,63.39,28.38,63.39,63.39,63.39"/>
  <path class="cls-1" d="M1348.21,795.11c35.01,0,63.39-28.38,63.39-63.39s-28.38-63.39-63.39-63.39-63.39,28.38-63.39,63.39,28.38,63.39,63.39,63.39"/>
  <path class="cls-18" d="M1625.02,795.11c35.01,0,63.39-28.38,63.39-63.39s-28.38-63.39-63.39-63.39-63.39,28.38-63.39,63.39,28.38,63.39,63.39,63.39"/>
  <text class="cls-5" transform="translate(161.71 216.87)"><tspan x="0" y="0">ea</tspan><tspan class="cls-10" x="34.5" y="0">s</tspan><tspan class="cls-6" x="48.65" y="0">y</tspan><tspan x="63.63" y="0" xml:space="preserve"> going</tspan></text>
  <text class="cls-5" transform="translate(207.44 252.05)"><tspan x="0" y="0">g</tspan><tspan class="cls-9" x="18.35" y="0">r</tspan><tspan class="cls-14" x="28.94" y="0">e</tspan><tspan x="46.06" y="0">y</tspan></text>
  <text class="cls-5" transform="translate(423.93 216.87)"><tspan x="0" y="0">con</tspan><tspan class="cls-8" x="53.81" y="0">s</tspan><tspan x="68.12" y="0">tructi</tspan><tspan class="cls-11" x="141.8" y="0">v</tspan><tspan x="157.82" y="0">e</tspan></text>
  <text class="cls-5" transform="translate(484.24 252.05)"><tspan x="0" y="0">black</tspan></text>
  <text class="cls-5" transform="translate(745.45 216.87)"><tspan x="0" y="0">pl</tspan><tspan class="cls-7" x="24.23" y="0">a</tspan><tspan x="41.15" y="0">yful</tspan></text>
  <text class="cls-5" transform="translate(763.67 252.05)"><tspan x="0" y="0">green</tspan></text>
  <text class="cls-5" transform="translate(1005.31 216.87)"><tspan x="0" y="0">p</tspan><tspan class="cls-13" x="17.96" y="0">o</tspan><tspan class="cls-12" x="36.5" y="0">w</tspan><tspan x="60.01" y="0">erful</tspan></text>
  <text class="cls-5" transform="translate(1025.69 252.05)"><tspan class="cls-10" x="0" y="0">y</tspan><tspan x="15.38" y="0">ell</tspan><tspan class="cls-13" x="45.29" y="0">o</tspan><tspan x="63.83" y="0">w</tspan></text>
  <text class="cls-5" transform="translate(1251.53 216.87)"><tspan x="0" y="0">good looking </tspan></text>
  <text class="cls-5" transform="translate(1299.23 252.05)"><tspan x="0" y="0">purple</tspan></text>
  <text class="cls-5" transform="translate(1586.8 216.87)"><tspan x="0" y="0">basic </tspan></text>
  <text class="cls-5" transform="translate(1556.62 252.05)"><tspan x="0" y="0">wordpress</tspan></text>
</svg>