<?xml version="1.0" encoding="UTF-8"?>
<svg id="Layer_1" xmlns="http://www.w3.org/2000/svg" width="1920" height="1080" viewBox="0 0 1920 1080">
  <defs>
    <style>
      .cls-1 {
        fill: #dadada;
      }
    </style>
  </defs>
  <rect class="cls-1" x="-9.43" y="-27.39" width="1977.57" height="1131.2"/>
  <g>
    <path d="M727.43,589.61c-4.53-2.15-8.26-4.75-11.2-7.81v9.33h-14.93v-123.86h14.93v48.02c3.17-3.39,7.15-6.02,11.96-7.89,4.81-1.87,9.93-2.8,15.36-2.8,7.35,0,13.97,1.81,19.85,5.43,5.88,3.62,10.46,8.77,13.74,15.44,3.28,6.68,4.92,14.42,4.92,23.25s-1.75,16.57-5.26,23.25c-3.51,6.68-8.23,11.82-14.17,15.44-5.94,3.62-12.42,5.43-19.43,5.43-6,0-11.26-1.08-15.78-3.22ZM759.76,571.62c4.92-5.09,7.38-12.73,7.38-22.91s-2.46-17.82-7.38-22.91-11.23-7.63-18.92-7.63c-4.41,0-8.48,1.05-12.22,3.14-3.73,2.09-6.73,4.86-8.99,8.31-2.26,3.45-3.39,7.16-3.39,11.11v16.29c0,3.96,1.1,7.64,3.31,11.03,2.21,3.39,5.2,6.11,8.99,8.14,3.79,2.04,7.89,3.05,12.3,3.05,7.69,0,14-2.55,18.92-7.64Z"/>
    <path d="M800.05,467.27h14.93v123.86h-14.93v-123.86Z"/>
    <path d="M853.93,587.15c-6.62-3.79-11.77-9.05-15.44-15.78-3.68-6.73-5.51-14.28-5.51-22.65s1.84-15.92,5.51-22.65c3.67-6.73,8.82-11.99,15.44-15.78,6.62-3.79,14.17-5.68,22.65-5.68s16.03,1.9,22.65,5.68c6.62,3.79,11.76,9.05,15.44,15.78,3.67,6.73,5.51,14.28,5.51,22.65s-1.84,15.92-5.51,22.65c-3.68,6.73-8.82,11.99-15.44,15.78-6.62,3.79-14.17,5.68-22.65,5.68s-16.03-1.89-22.65-5.68ZM897.19,571.28c5.37-5.32,8.06-12.84,8.06-22.57s-2.69-17.25-8.06-22.57c-5.37-5.32-12.25-7.97-20.62-7.97s-15.24,2.66-20.62,7.97c-5.37,5.32-8.06,12.84-8.06,22.57s2.69,17.25,8.06,22.57c5.37,5.32,12.24,7.97,20.62,7.97s15.24-2.66,20.62-7.97Z"/>
    <path d="M954.46,587.32c-6.45-3.68-11.51-8.85-15.19-15.53-3.68-6.67-5.51-14.36-5.51-23.08s1.84-16.4,5.51-23.08c3.68-6.67,8.74-11.85,15.19-15.53,6.45-3.67,13.69-5.51,21.72-5.51,10.97,0,20.02,2.86,27.15,8.57,7.13,5.71,11.42,13.66,12.9,23.84h-14.08c-1.36-5.99-4.24-10.63-8.65-13.91-4.41-3.28-10.12-4.92-17.14-4.92-8.15,0-14.79,2.74-19.94,8.23-5.15,5.49-7.72,12.92-7.72,22.31s2.57,16.83,7.72,22.31c5.15,5.49,11.79,8.23,19.94,8.23,7.01,0,12.73-1.64,17.14-4.92,4.41-3.28,7.3-7.92,8.65-13.91h14.08c-1.47,10.18-5.77,18.13-12.9,23.84-7.13,5.71-16.18,8.57-27.15,8.57-8.03,0-15.27-1.84-21.72-5.51Z"/>
    <path d="M1034.21,467.27h14.93v69.57l30.03-30.54h19.34l-37.84,38.18,41.4,46.66h-19l-33.94-38.01v38.01h-14.93v-123.86Z"/>
    <path d="M1142.8,589.61c-4.53-2.15-8.26-4.75-11.2-7.81v9.33h-14.93v-123.86h14.93v48.02c3.16-3.39,7.15-6.02,11.96-7.89,4.81-1.87,9.93-2.8,15.36-2.8,7.35,0,13.97,1.81,19.85,5.43,5.88,3.62,10.46,8.77,13.74,15.44,3.28,6.68,4.92,14.42,4.92,23.25s-1.76,16.57-5.26,23.25c-3.51,6.68-8.23,11.82-14.17,15.44-5.94,3.62-12.42,5.43-19.43,5.43-6,0-11.26-1.08-15.78-3.22ZM1175.12,571.62c4.92-5.09,7.38-12.73,7.38-22.91s-2.46-17.82-7.38-22.91c-4.92-5.09-11.23-7.63-18.92-7.63-4.41,0-8.48,1.05-12.22,3.14-3.73,2.09-6.73,4.86-8.99,8.31-2.26,3.45-3.39,7.16-3.39,11.11v16.29c0,3.96,1.1,7.64,3.31,11.03,2.21,3.39,5.2,6.11,8.99,8.14,3.79,2.04,7.89,3.05,12.3,3.05,7.69,0,14-2.55,18.92-7.64Z"/>
    <path d="M1215.67,490.43c-1.98-1.98-2.97-4.38-2.97-7.21s.99-5.23,2.97-7.21,4.38-2.97,7.21-2.97,5.23.99,7.21,2.97c1.98,1.98,2.97,4.38,2.97,7.21s-.99,5.23-2.97,7.21-4.38,2.97-7.21,2.97-5.23-.99-7.21-2.97ZM1215.42,506.3h14.93v84.84h-14.93v-84.84Z"/>
    <path d="M1267.93,587.32c-3.68-3.68-5.51-8.96-5.51-15.86v-51.58h-16.8v-13.57h16.8v-25.45l14.93,5.43v20.02h20.36v13.57h-20.36v50.56c0,2.94.88,5.2,2.63,6.79,1.75,1.58,4.38,2.38,7.89,2.38,2.15,0,4.04-.14,5.69-.42,1.64-.28,2.74-.48,3.31-.59v12.56c-4.41,1.13-8.94,1.7-13.57,1.7-6.56,0-11.68-1.84-15.36-5.51Z"/>
    <path d="M1327.91,587.32c-6.22-3.68-11-8.82-14.34-15.44-3.34-6.62-5.01-14.34-5.01-23.16s1.87-16.23,5.6-22.91c3.73-6.67,8.76-11.88,15.1-15.61,6.33-3.73,13.23-5.6,20.7-5.6s14.39,1.73,20.45,5.18c6.05,3.45,10.8,8.4,14.25,14.85,3.45,6.45,5.17,14.14,5.17,23.08v5.77h-66.17c.22,8.03,2.74,14.34,7.55,18.92,4.81,4.58,11.11,6.87,18.92,6.87,6.45,0,11.82-1.55,16.12-4.67,4.3-3.11,7.24-7.27,8.82-12.47h13.91c-2.38,9.62-6.9,17.14-13.57,22.57-6.68,5.43-15.16,8.14-25.45,8.14-8.48,0-15.84-1.84-22.06-5.51ZM1375.76,540.57c-.57-7.13-3.25-12.64-8.06-16.54-4.81-3.9-10.72-5.85-17.73-5.85s-12.56,1.98-17.31,5.94c-4.75,3.96-7.69,9.45-8.82,16.46h51.92Z"/>
  </g>
  <path d="M569.89,506.21h-38.74v84.87h84.87v-38.74h-46.13v-46.13ZM569.89,467.45v38.76h46.13v46.13h38.74l.61-46.13v-38.76h-85.48ZM531.15,428.71v38.74h38.74v-24.76l-38.74-13.98Z"/>
  <rect x="701.3" y="467.27" width="14.93" height="26.13"/>
</svg>